<?xml version="1.0" encoding="UTF-8"?>
<svg xmlns="http://www.w3.org/2000/svg" xmlns:xlink="http://www.w3.org/1999/xlink" width="1080" height="1920" viewBox="0 0 1080 1920">
<defs>
<g>
<g id="glyph-0-0">
<path d="M 0.960938 -11.996094 L 2.382812 -11.996094 L 2.382812 -7.65625 C 2.703125 -8.074219 3.085938 -8.394531 3.53125 -8.613281 C 3.976562 -8.832031 4.460938 -8.945312 4.980469 -8.945312 C 6.066406 -8.945312 6.945312 -8.570312 7.621094 -7.824219 C 8.296875 -7.078125 8.632812 -5.980469 8.632812 -4.523438 C 8.632812 -3.144531 8.300781 -2.003906 7.632812 -1.089844 C 6.964844 -0.179688 6.042969 0.277344 4.859375 0.277344 C 4.195312 0.277344 3.636719 0.117188 3.183594 -0.203125 C 2.910156 -0.394531 2.621094 -0.695312 2.3125 -1.113281 L 2.3125 0 L 0.960938 0 Z M 4.769531 -1.015625 C 5.5625 -1.015625 6.152344 -1.332031 6.546875 -1.960938 C 6.941406 -2.589844 7.136719 -3.421875 7.136719 -4.453125 C 7.136719 -5.367188 6.941406 -6.128906 6.546875 -6.730469 C 6.152344 -7.332031 5.574219 -7.632812 4.808594 -7.632812 C 4.140625 -7.632812 3.558594 -7.386719 3.054688 -6.894531 C 2.554688 -6.398438 2.304688 -5.585938 2.304688 -4.453125 C 2.304688 -3.632812 2.40625 -2.96875 2.613281 -2.457031 C 2.996094 -1.496094 3.714844 -1.015625 4.769531 -1.015625 Z "/>
</g>
<g id="glyph-0-1">
<path d="M 2.539062 -8.714844 L 2.539062 -2.929688 C 2.539062 -2.484375 2.609375 -2.121094 2.75 -1.839844 C 3.011719 -1.320312 3.496094 -1.058594 4.207031 -1.058594 C 5.226562 -1.058594 5.921875 -1.515625 6.289062 -2.425781 C 6.492188 -2.914062 6.59375 -3.582031 6.59375 -4.433594 L 6.59375 -8.714844 L 8.058594 -8.714844 L 8.058594 0 L 6.671875 0 L 6.691406 -1.285156 C 6.5 -0.953125 6.265625 -0.675781 5.980469 -0.449219 C 5.421875 0.0078125 4.746094 0.234375 3.945312 0.234375 C 2.703125 0.234375 1.859375 -0.179688 1.40625 -1.007812 C 1.164062 -1.453125 1.042969 -2.046875 1.042969 -2.792969 L 1.042969 -8.714844 Z "/>
</g>
<g id="glyph-0-2">
<path d="M 1.074219 -8.675781 L 2.5625 -8.675781 L 2.5625 0 L 1.074219 0 Z M 1.074219 -11.953125 L 2.5625 -11.953125 L 2.5625 -10.292969 L 1.074219 -10.292969 Z "/>
</g>
<g id="glyph-0-3">
<path d="M 1.113281 -11.953125 L 2.578125 -11.953125 L 2.578125 0 L 1.113281 0 Z "/>
</g>
<g id="glyph-0-4">
<path d="M 1.367188 -11.148438 L 2.847656 -11.148438 L 2.847656 -8.714844 L 4.238281 -8.714844 L 4.238281 -7.519531 L 2.847656 -7.519531 L 2.847656 -1.832031 C 2.847656 -1.527344 2.953125 -1.324219 3.15625 -1.222656 C 3.269531 -1.160156 3.460938 -1.132812 3.726562 -1.132812 C 3.796875 -1.132812 3.875 -1.132812 3.957031 -1.136719 C 4.039062 -1.136719 4.132812 -1.144531 4.238281 -1.15625 L 4.238281 0 C 4.070312 0.0507812 3.898438 0.0859375 3.714844 0.105469 C 3.535156 0.128906 3.335938 0.136719 3.125 0.136719 C 2.441406 0.136719 1.976562 -0.0351562 1.734375 -0.386719 C 1.488281 -0.738281 1.367188 -1.191406 1.367188 -1.75 L 1.367188 -7.519531 L 0.1875 -7.519531 L 0.1875 -8.714844 L 1.367188 -8.714844 Z "/>
</g>
</g>
</defs>
<g fill="rgb(0%, 100%, 80%)" fill-opacity="1">
<use xlink:href="#glyph-0-0" x="30" y="32.833984"/>
<use xlink:href="#glyph-0-1" x="39" y="32.833984"/>
<use xlink:href="#glyph-0-2" x="48" y="32.833984"/>
<use xlink:href="#glyph-0-3" x="52" y="32.833984"/>
<use xlink:href="#glyph-0-4" x="56" y="32.833984"/>
</g>
</svg>
